<?xml version="1.0" encoding="UTF-8"?>
<svg id="OBJECTS" xmlns="http://www.w3.org/2000/svg" xmlns:xlink="http://www.w3.org/1999/xlink" viewBox="0 0 500 500">
  <defs>
    <style>
      .cls-1 {
        fill: url(#Gradiente_sem_nome_20-2);
      }

      .cls-2 {
        fill: url(#Gradiente_sem_nome_36-3);
      }

      .cls-3 {
        fill: url(#Gradiente_sem_nome_20-4);
      }

      .cls-4 {
        fill: url(#Gradiente_sem_nome_36-2);
      }

      .cls-5 {
        fill: url(#Gradiente_sem_nome_20-6);
      }

      .cls-6 {
        fill: url(#Fading_Sky-2);
        opacity: .4;
      }

      .cls-7 {
        fill: url(#Gradiente_sem_nome_20-5);
      }

      .cls-8 {
        fill: url(#Gradiente_sem_nome_36);
      }

      .cls-9 {
        fill: url(#Gradiente_sem_nome_20-3);
      }

      .cls-10 {
        fill: url(#Gradiente_sem_nome_20);
      }

      .cls-11 {
        fill: url(#Gradiente_sem_nome_36-5);
      }

      .cls-12 {
        fill: url(#Fading_Sky);
      }

      .cls-13 {
        fill: url(#Gradiente_sem_nome_36-4);
      }
    </style>
    <linearGradient id="Fading_Sky" data-name="Fading Sky" x1="-171.81" y1="47.24" x2="-147.85" y2="-18.13" gradientTransform="translate(281.24 120.12) rotate(-27.31) scale(1.06 1.33) skewX(-15.91)" gradientUnits="userSpaceOnUse">
      <stop offset="0" stop-color="#5083c2"/>
      <stop offset="1" stop-color="#5082c2" stop-opacity="0"/>
    </linearGradient>
    <linearGradient id="Gradiente_sem_nome_36" data-name="Gradiente sem nome 36" x1="-227.47" y1="26.85" x2="-203.5" y2="-38.52" gradientTransform="translate(281.24 120.12) rotate(-27.31) scale(1.06 1.33) skewX(-15.91)" gradientUnits="userSpaceOnUse">
      <stop offset="0" stop-color="#00b553"/>
      <stop offset="1" stop-color="#5082c2" stop-opacity="0"/>
    </linearGradient>
    <linearGradient id="Gradiente_sem_nome_36-2" data-name="Gradiente sem nome 36" x1="122.43" y1="238.01" x2="149.93" y2="238.01" gradientTransform="matrix(1,0,0,1,0,0)" xlink:href="#Gradiente_sem_nome_36"/>
    <linearGradient id="Fading_Sky-2" data-name="Fading Sky" x1="63.16" y1="238.01" x2="90.66" y2="238.01" gradientTransform="matrix(1,0,0,1,0,0)" xlink:href="#Fading_Sky"/>
    <linearGradient id="Gradiente_sem_nome_36-3" data-name="Gradiente sem nome 36" x1="-247.23" y1="90.31" x2="-186.33" y2="62.66" gradientTransform="translate(366.6 253.27) rotate(22.65) scale(.98 .87) skewX(5.21)" xlink:href="#Gradiente_sem_nome_36"/>
    <linearGradient id="Gradiente_sem_nome_36-4" data-name="Gradiente sem nome 36" x1="-316.75" y1="141.44" x2="-258.63" y2="130.52" gradientTransform="translate(482.91 115.78) rotate(12.69) scale(1.06 1.33) skewX(-15.91)" xlink:href="#Gradiente_sem_nome_36"/>
    <linearGradient id="Gradiente_sem_nome_36-5" data-name="Gradiente sem nome 36" x1="-368.69" y1="151.21" x2="-310.57" y2="140.28" gradientTransform="translate(482.91 115.78) rotate(12.69) scale(1.06 1.33) skewX(-15.91)" xlink:href="#Gradiente_sem_nome_36"/>
    <linearGradient id="Gradiente_sem_nome_20" data-name="Gradiente sem nome 20" x1="186.98" y1="262.2" x2="208.59" y2="240.59" gradientUnits="userSpaceOnUse">
      <stop offset="0" stop-color="#00b553"/>
      <stop offset=".64" stop-color="#289b8b" stop-opacity=".5"/>
      <stop offset="1" stop-color="#5082c2" stop-opacity="0"/>
    </linearGradient>
    <linearGradient id="Gradiente_sem_nome_20-2" data-name="Gradiente sem nome 20" x1="222.3" y1="257.95" x2="246.67" y2="233.58" xlink:href="#Gradiente_sem_nome_20"/>
    <linearGradient id="Gradiente_sem_nome_20-3" data-name="Gradiente sem nome 20" x1="260.87" y1="262.2" x2="282.48" y2="240.59" xlink:href="#Gradiente_sem_nome_20"/>
    <linearGradient id="Gradiente_sem_nome_20-4" data-name="Gradiente sem nome 20" x1="294.56" y1="258.64" x2="317.56" y2="235.65" xlink:href="#Gradiente_sem_nome_20"/>
    <linearGradient id="Gradiente_sem_nome_20-5" data-name="Gradiente sem nome 20" x1="327.57" y1="263.5" x2="352.6" y2="238.47" xlink:href="#Gradiente_sem_nome_20"/>
    <linearGradient id="Gradiente_sem_nome_20-6" data-name="Gradiente sem nome 20" x1="363.77" y1="266.38" x2="394.68" y2="235.47" xlink:href="#Gradiente_sem_nome_20"/>
  </defs>
  <g>
    <path class="cls-12" d="M136.18,265.91h0c-7.59,0-13.75-6.16-13.75-13.75v-70.59c0-7.59,6.16-13.75,13.75-13.75h0c7.59,0,13.75,6.16,13.75,13.75v70.59c0,7.59-6.16,13.75-13.75,13.75Z"/>
    <rect class="cls-8" x="63.16" y="167.82" width="27.5" height="98.09" rx="5.53" ry="5.53"/>
    <path class="cls-4" d="M149.93,210.1l-26.39,31.45c-.4.48-.76.98-1.1,1.49v9.12c0,7.59,6.16,13.75,13.75,13.75s13.75-6.16,13.75-13.75v-42.06Z"/>
    <path class="cls-6" d="M90.66,210.1l-26.39,31.45c-.4.48-.76.98-1.1,1.49v9.12c0,7.59,6.16,13.75,13.75,13.75s13.75-6.16,13.75-13.75v-42.06Z"/>
    <path class="cls-2" d="M127.35,262.7h0c-5.82-4.88-6.58-13.55-1.69-19.37l28.87-34.4c4.88-5.82,13.55-6.58,19.37-1.69h0c5.82,4.88,6.58,13.55,1.69,19.37l-28.87,34.4c-4.88,5.82-13.55,6.58-19.37,1.69Z"/>
    <path class="cls-13" d="M68.1,262.7h0c-5.82-4.88-6.58-13.55-1.69-19.37l59.24-70.6c4.88-5.82,13.55-6.58,19.37-1.69h0c5.82,4.88,6.58,13.55,1.69,19.37l-59.24,70.6c-4.88,5.82-13.55,6.58-19.37,1.69Z"/>
    <path class="cls-11" d="M8.83,262.7h0c-5.82-4.88-6.58-13.55-1.69-19.37l59.24-70.6c4.88-5.82,13.55-6.58,19.37-1.69h0c5.82,4.88,6.58,13.55,1.69,19.37l-59.24,70.6c-4.88,5.82-13.55,6.58-19.37,1.69Z"/>
  </g>
  <path class="cls-10" d="M198.04,266.89c-3.24,0-5.92-.68-8.05-2.05-2.13-1.37-3.62-3.22-4.46-5.55l6.69-3.89c1.14,2.71,3.15,4.07,6.03,4.07,2.39,0,3.58-.68,3.58-2.04,0-.89-.69-1.62-2.07-2.17-.58-.24-1.86-.65-3.83-1.22-2.8-.82-5.01-1.96-6.65-3.43-1.63-1.47-2.45-3.52-2.45-6.14,0-2.83,1.01-5.12,3.04-6.87,2.03-1.75,4.55-2.62,7.59-2.62,2.56,0,4.84.6,6.82,1.79,1.98,1.2,3.5,2.93,4.55,5.2l-6.56,3.85c-.96-2.27-2.55-3.41-4.77-3.41-.93,0-1.64.19-2.12.57s-.72.86-.72,1.45c0,.67.36,1.25,1.07,1.71.71.47,2.1,1.01,4.17,1.63,1.46.52,2.64.95,3.56,1.28.92.33,1.92.85,3,1.57s1.88,1.63,2.41,2.75c.53,1.12.79,2.43.79,3.95,0,3-1.06,5.35-3.19,7.04-2.13,1.69-4.94,2.54-8.44,2.54Z"/>
  <path class="cls-1" d="M248.72,235.62l-10.32,18.84v11.76h-7.83v-11.67l-10.32-18.93h8.79l5.42,11.32,5.47-11.32h8.79Z"/>
  <path class="cls-9" d="M271.93,266.89c-3.24,0-5.92-.68-8.05-2.05-2.13-1.37-3.62-3.22-4.46-5.55l6.69-3.89c1.14,2.71,3.15,4.07,6.03,4.07,2.39,0,3.58-.68,3.58-2.04,0-.89-.69-1.62-2.07-2.17-.58-.24-1.86-.65-3.83-1.22-2.8-.82-5.01-1.96-6.65-3.43-1.63-1.47-2.45-3.52-2.45-6.14,0-2.83,1.01-5.12,3.04-6.87,2.03-1.75,4.55-2.62,7.59-2.62,2.56,0,4.84.6,6.82,1.79,1.98,1.2,3.5,2.93,4.55,5.2l-6.56,3.85c-.96-2.27-2.55-3.41-4.77-3.41-.93,0-1.64.19-2.12.57s-.72.86-.72,1.45c0,.67.36,1.25,1.07,1.71.71.47,2.1,1.01,4.17,1.63,1.46.52,2.64.95,3.56,1.28.92.33,1.92.85,3,1.57s1.88,1.63,2.41,2.75c.53,1.12.79,2.43.79,3.95,0,3-1.06,5.35-3.19,7.04-2.13,1.69-4.94,2.54-8.44,2.54Z"/>
  <path class="cls-3" d="M317.54,235.62v7.56h-7.56v23.04h-7.83v-23.04h-7.56v-7.56h22.95Z"/>
  <path class="cls-7" d="M338.13,258.89h11.85v7.34h-19.68v-30.61h19.46v7.3h-11.63v4.24h10.54v7.21h-10.54v4.5Z"/>
  <path class="cls-5" d="M394.84,235.62v30.61h-7.78v-16.48l-7.43,12.29h-.79l-7.39-12.24v16.44h-7.83v-30.61h7.83l7.78,13.07,7.83-13.07h7.78Z"/>
</svg>